<?xml version="1.0" encoding="utf-8"?>
<!-- Generator: Adobe Illustrator 16.0.4, SVG Export Plug-In . SVG Version: 6.00 Build 0)  -->
<!DOCTYPE svg PUBLIC "-//W3C//DTD SVG 1.1//EN" "http://www.w3.org/Graphics/SVG/1.1/DTD/svg11.dtd">
<svg xmlns:xlink="http://www.w3.org/1999/xlink" version="1.1" id="Layer_1" xmlns="http://www.w3.org/2000/svg" x="0px" y="0px"
	 width="260px" height="210px" viewBox="0 0 260 210" enable-background="new 0 0 260 210" xml:space="preserve">
<title>logo</title>
<path fill="#1FA22E" d="M210.453,35.998c-16.514,20.518-26,42.23-27.756,45.252c-1.758,3.021-9.064,15.74-9.064,15.74
	s-6.043-19.816-28.949-19.816c-22.908,0-43.918,15.672-67.527,60.572c0,0-20.659,4.918-33.026,4.918
	c-0.28,0-0.491,0.211-0.491,0.492c0,0.141,0.07,0.211,0.07,0.281c2.038,2.74,10.259,11.383,31.199,11.031
	c24.805-0.352,45.395-8.082,70.619-8.082c17.496,0,27.193,1.336,31.48,2.18c1.686,0.352,3.373-0.49,4.217-1.967l17.285-30.707
	c0.703-1.193,0.279-2.74-0.984-3.443c-0.281-0.141-0.561-0.281-0.912-0.281c-7.871-1.053-26.771-3.021-41.389-0.631
	c-18.902,3.09-26,5.408-48.625,16.371c-4.498,2.18-13.914,5.342-13.914,5.342s18.762-11.244,26.912-15.951
	c17.006-9.908,36.469-14.828,56.145-14.055c4.287-8.291,9.627-18.059,13.422-20.52c3.793-2.459,17.428-8.432,21.15-15.951
	c3.725-7.518,5.34-22.906,7.52-26.77c2.178-3.865,4.92-16.303,30.848-33.449C239.404,10.42,226.967,15.41,210.453,35.998
	L210.453,35.998z"/>
<path fill="#919191" d="M56.777,174.707c-3.723,0-5.059,1.967-5.059,1.967l-1.265-1.967h-6.043v28.738l7.167-2.389v-8.012
	c1.546,0.773,3.303,1.125,5.061,1.055c3.231,0,5.832-2.316,5.832-8.643C62.469,179.133,61.557,174.707,56.777,174.707
	L56.777,174.707z M53.404,189.041c-0.702,0.07-1.334-0.141-1.896-0.492v-7.518c0,0,0.07-0.844,1.896-0.844
	c1.828,0,1.898,0.982,1.898,4.85C55.303,188.9,54.811,189.041,53.404,189.041z M133.58,174.707c-3.725,0-5.059,1.967-5.059,1.967
	l-1.266-1.967h-6.043v28.738l7.168-2.389v-8.012c1.545,0.773,3.303,1.125,5.059,1.055c3.232,0,5.832-2.316,5.832-8.643
	C139.273,179.133,138.43,174.707,133.58,174.707L133.58,174.707z M130.279,189.041c-0.703,0.07-1.336-0.141-1.896-0.492v-7.518
	c0,0,0.068-0.844,1.896-0.844c1.826,0,1.896,0.982,1.896,4.85C132.176,188.9,131.684,189.041,130.279,189.041z M162.672,174.707
	c-3.725,0-5.061,1.967-5.061,1.967l-1.266-1.967h-6.041v28.738l7.166-2.389v-8.012c1.547,0.773,3.303,1.125,5.061,1.055
	c3.23,0,5.832-2.316,5.832-8.643C168.363,179.133,167.52,174.707,162.672,174.707L162.672,174.707z M159.369,189.041
	c-0.705,0.07-1.336-0.141-1.898-0.492v-7.518c0,0,0.07-0.844,1.898-0.844c1.826,0,1.896,0.982,1.896,4.85
	C161.266,188.9,160.775,189.041,159.369,189.041z M71.253,169.014c0-1.967-1.546-3.514-3.513-3.514
	c-1.969,0-3.514,1.547-3.514,3.514s1.545,3.514,3.514,3.514C69.707,172.527,71.253,170.98,71.253,169.014z M63.945,193.959h7.519
	v-19.254h-7.448L63.945,193.959z M148.268,169.014c0-1.967-1.547-3.514-3.514-3.514c-1.969,0-3.516,1.547-3.516,3.514
	s1.547,3.514,3.516,3.514C146.721,172.598,148.268,170.98,148.268,169.014C148.338,169.084,148.338,169.084,148.268,169.014z
	 M141.029,193.959h7.59v-19.254h-7.52L141.029,193.959z M182.629,174.707h-6.678c-4.848,0-5.621,5.551-5.621,6.465
	c-0.07,1.195-0.07,4.285,0,6.535c0.141,4.004,3.303,6.254,5.48,6.254h5.412c1.967,0.07,3.934-0.211,5.762-0.914v-4.639
	c-2.32,0.703-6.113,0.633-8.012,0.633c-1.896,0-1.545-2.318-1.545-2.318h5.832c3.092,0,4.215-2.178,4.215-3.162v-4.355
	C187.547,175.832,184.174,174.707,182.629,174.707L182.629,174.707z M180.592,181.381c0,0.492-0.426,0.914-0.914,0.914h-2.25v-1.896
	c0-0.492,0.422-0.914,0.914-0.914h1.404c0.492,0,0.914,0.422,0.914,0.914v0.982H180.592z M85.868,174.707h-6.675
	c-4.848,0-5.621,5.551-5.621,6.465c-0.07,1.195-0.07,4.285,0,6.604c0.141,4.008,3.302,6.256,5.48,6.256h5.411
	c1.968,0.068,3.935-0.213,5.763-0.914v-4.639c-2.319,0.703-6.113,0.633-8.012,0.633c-1.896,0-1.545-2.318-1.545-2.318h5.832
	c3.092,0,4.217-2.18,4.217-3.162v-4.357C90.718,175.832,87.415,174.707,85.868,174.707L85.868,174.707z M83.762,181.381
	c0,0.492-0.423,0.914-0.914,0.914h-2.25v-1.896c0-0.492,0.422-0.914,0.914-0.914h1.405c0.492,0,0.914,0.422,0.914,0.914v0.982
	H83.762z M103.014,175.76c0,0-0.914-1.406-4.566-1.406c-6.465,0.072-6.325,6.957-6.325,9.064c0,9.77,3.303,10.541,6.396,10.541
	c1.686,0.07,3.373-0.633,4.498-1.967l1.125,1.686h5.9V165.5h-6.955L103.014,175.76z M103.014,187.635
	c-0.492,0.492-1.195,0.773-1.896,0.773c-1.266,0-1.967-0.492-1.967-4.217s0.209-4.777,1.967-4.777c1.756,0,1.896,0.49,1.896,0.49
	V187.635z M196.33,177.096l-0.914-2.391l-6.184,0.143v19.041h7.027V183.35c0-1.055,0.771-1.896,1.824-1.969h3.936v-6.885h-2.246
	C197.947,174.496,196.33,176.463,196.33,177.096L196.33,177.096z"/>
</svg>
