<?xml version="1.0" encoding="utf-8"?>
<!-- Generator: Adobe Illustrator 16.0.4, SVG Export Plug-In . SVG Version: 6.00 Build 0)  -->
<!DOCTYPE svg PUBLIC "-//W3C//DTD SVG 1.1//EN" "http://www.w3.org/Graphics/SVG/1.1/DTD/svg11.dtd">
<svg xmlns:xlink="http://www.w3.org/1999/xlink" version="1.1" id="Layer_1" xmlns="http://www.w3.org/2000/svg" x="0px" y="0px"
	 width="230px" height="130px" viewBox="15 15.25 230 130" enable-background="new 15 15.25 230 130" xml:space="preserve">
<title>logo</title>
<path fill="#FFFFFF" d="M186.05,35.631c-10.286,12.782-16.195,26.307-17.29,28.189c-1.094,1.882-5.646,9.806-5.646,9.806
	s-3.765-12.345-18.033-12.345c-14.27,0-27.357,9.763-42.064,37.732c0,0-12.869,3.063-20.573,3.063c-0.175,0-0.306,0.133-0.306,0.308
	c0,0.087,0.044,0.13,0.044,0.175c1.27,1.707,6.391,7.09,19.435,6.872c15.451-0.219,28.276-5.033,43.991-5.033
	c10.898,0,16.939,0.831,19.608,1.356c1.052,0.22,2.101-0.306,2.628-1.224L178.609,85.4c0.438-0.744,0.175-1.708-0.612-2.145
	c-0.175-0.087-0.351-0.175-0.568-0.175c-4.902-0.657-16.677-1.882-25.782-0.394c-11.774,1.925-16.196,3.37-30.29,10.198
	c-2.802,1.358-8.667,3.327-8.667,3.327s11.687-7.003,16.764-9.936c10.594-6.173,22.718-9.236,34.976-8.755
	c2.67-5.166,5.996-11.25,8.359-12.783c2.364-1.531,10.855-5.252,13.176-9.936c2.319-4.684,3.327-14.27,4.684-16.676
	c1.357-2.407,3.064-10.156,19.216-20.836C204.085,19.698,196.336,22.806,186.05,35.631L186.05,35.631z"/>
<path fill="#FFFFFF" d="M88.614,122.036c-2.319,0-3.151,1.227-3.151,1.227l-0.788-1.227H80.91v17.903l4.465-1.488v-4.99
	c0.963,0.481,2.058,0.699,3.152,0.658c2.013,0,3.633-1.445,3.633-5.386C92.159,124.793,91.591,122.036,88.614,122.036
	L88.614,122.036z M86.513,130.966c-0.438,0.044-0.831-0.088-1.182-0.307v-4.683c0,0,0.044-0.525,1.182-0.525
	c1.139,0,1.182,0.612,1.182,3.02S87.389,130.966,86.513,130.966z M136.456,122.036c-2.319,0-3.15,1.227-3.15,1.227l-0.79-1.227
	h-3.764v17.903l4.465-1.488v-4.99c0.963,0.481,2.058,0.699,3.152,0.658c2.014,0,3.634-1.445,3.634-5.386
	S139.478,122.036,136.456,122.036L136.456,122.036z M134.4,130.966c-0.438,0.044-0.832-0.088-1.182-0.307v-4.683
	c0,0,0.043-0.525,1.182-0.525c1.138,0,1.181,0.612,1.181,3.02S135.275,130.966,134.4,130.966z M154.578,122.036
	c-2.32,0-3.151,1.227-3.151,1.227l-0.789-1.227h-3.764v17.903l4.464-1.488v-4.99c0.964,0.481,2.058,0.699,3.153,0.658
	c2.012,0,3.632-1.445,3.632-5.386C158.124,124.793,157.599,122.036,154.578,122.036L154.578,122.036z M152.521,130.966
	c-0.438,0.044-0.832-0.088-1.182-0.307v-4.683c0,0,0.044-0.525,1.182-0.525s1.182,0.612,1.182,3.02S153.396,130.966,152.521,130.966
	z M97.631,118.491c0-1.227-0.963-2.189-2.188-2.189c-1.227,0-2.188,0.963-2.188,2.189c0,1.226,0.962,2.189,2.188,2.189
	C96.668,120.681,97.631,119.717,97.631,118.491z M93.079,134.03h4.684v-11.995h-4.64L93.079,134.03z M145.604,118.491
	c0-1.227-0.962-2.189-2.188-2.189c-1.225,0-2.188,0.963-2.188,2.189c0,1.226,0.964,2.189,2.188,2.189
	C144.643,120.723,145.604,119.717,145.604,118.491C145.649,118.534,145.649,118.534,145.604,118.491z M141.098,134.03h4.728v-11.995
	h-4.686L141.098,134.03z M167.01,122.036h-4.159c-3.021,0-3.502,3.458-3.502,4.028c-0.044,0.743-0.044,2.669,0,4.07
	c0.088,2.494,2.058,3.896,3.413,3.896h3.372c1.227,0.044,2.451-0.131,3.59-0.569v-2.889c-1.445,0.438-3.809,0.394-4.991,0.394
	c-1.181,0-0.963-1.443-0.963-1.443h3.633c1.927,0,2.626-1.357,2.626-1.97v-2.713C170.074,122.737,167.972,122.036,167.01,122.036
	L167.01,122.036z M165.741,126.194c0,0.306-0.265,0.568-0.569,0.568h-1.401v-1.18c0-0.308,0.262-0.569,0.568-0.569h0.875
	c0.307,0,0.57,0.262,0.57,0.569v0.611H165.741z M106.735,122.036h-4.158c-3.02,0-3.501,3.458-3.501,4.028
	c-0.044,0.743-0.044,2.669,0,4.113c0.087,2.496,2.057,3.896,3.414,3.896h3.371c1.225,0.045,2.451-0.132,3.588-0.568v-2.89
	c-1.443,0.438-3.807,0.394-4.989,0.394c-1.182,0-0.962-1.443-0.962-1.443h3.632c1.926,0,2.627-1.358,2.627-1.971v-2.714
	C109.757,122.737,107.699,122.036,106.735,122.036L106.735,122.036z M105.422,126.194c0,0.306-0.262,0.568-0.569,0.568h-1.4v-1.18
	c0-0.308,0.263-0.569,0.569-0.569h0.876c0.306,0,0.569,0.262,0.569,0.569v0.611H105.422z M117.416,122.693
	c0,0-0.569-0.876-2.845-0.876c-4.027,0.044-3.94,4.334-3.94,5.646c0,6.086,2.058,6.567,3.983,6.567
	c1.051,0.043,2.102-0.395,2.802-1.226l0.701,1.051h3.677v-17.554h-4.334L117.416,122.693z M117.416,130.09
	c-0.307,0.307-0.744,0.481-1.182,0.481c-0.788,0-1.225-0.306-1.225-2.626c0-2.321,0.13-2.977,1.225-2.977s1.182,0.307,1.182,0.307
	V130.09z M175.545,123.524l-0.568-1.489l-3.854,0.089v11.861h4.378v-6.564c0-0.658,0.481-1.183,1.138-1.227h2.451v-4.289h-1.399
	C176.553,121.906,175.545,123.13,175.545,123.524L175.545,123.524z"/>
</svg>
